<?xml version="1.0" standalone="no"?><!DOCTYPE svg PUBLIC "-//W3C//DTD SVG 1.1//EN" "http://www.w3.org/Graphics/SVG/1.1/DTD/svg11.dtd">
<svg t="1603186600679" class="icon" viewBox="0 0 1024 1024" version="1.1" xmlns="http://www.w3.org/2000/svg" p-id="4743"
     width="24" height="24"><defs><style type="text/css"></style></defs><path d="M586.603875 310.785248c0 15.231591 5.375856 28.28724 16.319561 38.782957a54.398538 54.398538 0 0 0 39.614936 15.99957H959.969841v603.503781a51.646612 51.646612 0 0 1-16.319562 38.782958 53.630559 53.630559 0 0 1-39.614935 16.127566H119.928417a53.758555 53.758555 0 0 1-39.614936-15.99957 52.222597 52.222597 0 0 1-16.319561-38.782957V54.792127C63.99392 39.560537 69.369776 26.504888 80.313481 16.00917A54.398538 54.398538 0 0 1 119.928417 0.0096h466.803454l-0.127996 310.775648z m74.621994-18.175512V22.664991c8.639768 5.247859 15.551582 10.751711 21.055435 15.99957l238.073601 233.209732c5.375856 5.247859 11.007704 12.159673 16.38356 20.607447l-275.512596 0.127996z" fill="#42B983" p-id="4744"></path></svg>